inDegrees=yes
name=ik_S48_A10_T02
DataType=double
version=3
OpenSimVersion=4.3-2021-08-27-4bc7ad9
endheader
time	pelvis_tilt	pelvis_list	pelvis_rotation	pelvis_tx	pelvis_ty	pelvis_tz	hip_flexion_r	hip_adduction_r	hip_rotation_r	knee_angle_r	knee_angle_r_beta	ankle_angle_r	subtalar_angle_r	mtp_angle_r	hip_flexion_l	hip_adduction_l	hip_rotation_l	knee_angle_l	knee_angle_l_beta	ankle_angle_l	subtalar_angle_l	mtp_angle_l	lumbar_extension	lumbar_bending	lumbar_rotation	arm_flex_r	arm_add_r	arm_rot_r	elbow_flex_r	pro_sup_r	wrist_flex_r	wrist_dev_r	arm_flex_l	arm_add_l	arm_rot_l	elbow_flex_l	pro_sup_l	wrist_flex_l	wrist_dev_l
15.71999999999975	0.4396929626673301	-0.3427198508011675	50.36845865525184	0	0.9399999999999999	0	45.00949210676641	-10.00000008433872	-10.0000487731183	54.98607009819461	0.9596879659458977	0	0	0	45.00949210676641	-10.00000008433872	-10.0000487731183	54.98607009819461	0.9596879659458977	0	0	0	-0.1057605255369432	0.1959607426019337	1.639604286847727	35.31378435417629	2.842359593666184	-5.366112792337001	19.80853460977125	106.4727242613	0	0	29.12178582243364	-8.222381553062482	-4.267015557043714	24.16858240622618	86.94308152858798	0	0
15.73999999999975	0.4359046055468794	-0.3553167757636207	50.40428285216991	0	0.9399999999999999	0	45.0094557974159	-10.00000008342805	-10.00004843556994	54.98611615704603	0.9596887698245046	0	0	0	45.0094557974159	-10.00000008342805	-10.00004843556994	54.98611615704603	0.9596887698245046	0	0	0	-0.1170545326662146	0.1901707778572596	1.634651249045376	33.98417079045343	2.850234582322638	-4.454763430908165	19.15356906952763	106.7607843000664	0	0	27.85648336123871	-7.648549079291199	-3.952789776710157	23.25623327744863	87.25400301200831	0	0
15.75999999999975	0.4015223798041283	-0.4418964648880116	50.48275531915086	0	0.9399999999999999	0	45.0094218454367	-10.00000008259822	-10.00004812478297	54.98615984749605	0.9596895323667092	0	0	0	45.0094218454367	-10.00000008259822	-10.00004812478297	54.98615984749605	0.9596895323667092	0	0	0	-0.205819428965607	0.1610472673309846	1.637610139945204	32.90046740201608	2.894274436192052	-3.523749073019531	18.40713696625831	106.6456856669221	0	0	27.05469774667167	-7.15829221734303	-3.810769717628272	23.09931029881517	87.61802758783288	0	0
15.77999999999975	0.3661414108360039	-0.5061208249753509	50.50611238860145	0	0.9399999999999999	0	45.00941768353702	-10.00000008245341	-10.00004807720589	54.98616398687542	0.9596896046125082	0	0	0	45.00941768353702	-10.00000008245341	-10.00004807720589	54.98616398687542	0.9596896046125082	0	0	0	-0.2748037918633136	0.1415416083136705	1.686244176217951	33.03968093895051	2.9032759320205	-3.668729482006781	16.27314466166797	107.3836655532869	0	0	26.28134508397911	-6.777521316420053	-3.813674184798507	21.8065442676849	88.46758260782606	0	0
15.79999999999975	0.3801923465379188	-0.5061155645643965	50.61410062685847	0	0.9399999999999999	0	45.00941189510412	-10.00000008225172	-10.0000480109663	54.98616973218478	0.9596897048870731	0	0	0	45.00941189510412	-10.00000008225172	-10.0000480109663	54.98616973218478	0.9596897048870731	0	0	0	-0.2673557428721873	0.1339593383132139	1.614619155566174	31.87544317376713	2.842611362911041	-2.701308566821975	17.61236801102762	106.472017291442	0	0	25.34571434460834	-6.494306928833185	-3.816915100939219	20.55608314170735	89.52771898489419	0	0
15.81999999999975	0.3953631499299655	-0.5018405205832648	50.68841953345785	0	0.9399999999999999	0	45.00936941138437	-10.0000000812118	-10.00004762159388	54.98622419778101	0.9596906554910564	0	0	0	45.00936941138437	-10.0000000812118	-10.00004762159388	54.98622419778101	0.9596906554910564	0	0	0	-0.2594030772357752	0.1377085390336197	1.535083788577677	29.69603094382968	2.689557511201628	-1.276591967997764	17.87040999695432	106.072462805427	0	0	24.45491454151624	-6.121755490043912	-4.255822781848944	18.348957188217	91.36256154709501	0	0
15.83999999999975	0.3730997703595741	-0.5432169045468598	50.71384802405903	0	0.9399999999999999	0	45.00936464847034	-10.00000008104751	-10.00004756739428	54.98622893854764	0.9596907382330431	0	0	0	45.00936464847034	-10.00000008104751	-10.00004756739428	54.98622893854764	0.9596907382330431	0	0	0	-0.3055309296755342	0.1287409429587864	1.488186203120963	29.78844412067955	2.708664458108984	-1.265314365389577	17.8607322024895	106.0788634214678	0	0	23.79825799738173	-5.75117931038254	-4.797604043259363	17.96273203367372	92.33366142332683	0	0
15.85999999999975	0.351765338052515	-0.5764847781516644	50.73828308962601	0	0.9399999999999999	0	45.00936052509275	-10.000000080906	-10.00004752061456	54.98623305361137	0.9596908100544541	0	0	0	45.00936052509275	-10.000000080906	-10.00004752061456	54.98623305361137	0.9596908100544541	0	0	0	-0.3455612721769655	0.1175771415735848	1.462928641880221	29.82474045540976	2.826042637012883	-1.329006935802582	14.04569326691534	106.9593132900451	0	0	23.0844840716705	-5.379909983708668	-5.135996541154209	16.85675364264002	93.39509436067807	0	0
15.87999999999975	0.3299670075938264	-0.6424806966200832	50.86095741013661	0	0.9399999999999999	0	45.00923709332577	-10.00000007801352	-10.0000464154639	54.98639302703718	0.9596936021174503	0	0	0	45.00923709332577	-10.00000007801352	-10.0000464154639	54.98639302703718	0.9596936021174503	0	0	0	-0.411163013004009	0.08630952124010956	1.359599026651537	26.95836019516563	2.632573161024042	-0.6425801115189402	17.06146718977721	106.4764046406774	0	0	23.25239304494261	-5.381469404341606	-5.23306272648342	15.0489705344647	94.29006311978938	0	0
15.89999999999975	0.2885838765960569	-0.7366505857567418	50.86829329574928	0	0.9399999999999999	0	45.00924588236203	-10.00000007811618	-10.00004647153834	54.98637905075866	0.9596933581853728	0	0	0	45.00924588236203	-10.00000007811618	-10.00004647153834	54.98637905075866	0.9596933581853728	0	0	0	-0.517705487338222	0.07626660901887233	1.340710390862705	26.23760167020866	2.755459381681365	-0.4694835639980351	12.85642670144624	106.8256527182651	0	0	21.87651341587929	-4.679320831718627	-5.055595055555922	14.982423108659	94.63185407982282	0	0
15.91999999999975	0.2844213348776954	-0.7460350583006017	50.88848722405353	0	0.9399999999999999	0	45.009242092987	-10.00000007798822	-10.00004642891055	54.98638283144435	0.9596934241707862	0	0	0	45.009242092987	-10.00000007798822	-10.00004642891055	54.98638283144435	0.9596934241707862	0	0	0	-0.5282392996444034	0.07425313200510303	1.297535408008071	25.42299223450954	2.761335683346303	-0.3358289226574641	12.13620169288577	107.1871388334648	0	0	21.87893700485305	-4.657393003693857	-5.151525428460291	13.5577681677322	94.78184076512015	0	0
15.93999999999975	0.2670167251635721	-0.7762600092376236	50.89875663701245	0	0.9399999999999999	0	45.00922841654837	-10.00000007762332	-10.00004629685683	54.98639943872016	0.9596937140224286	0	0	0	45.00922841654837	-10.00000007762332	-10.00004629685683	54.98639943872016	0.9596937140224286	0	0	0	-0.5639447459934211	0.07051956113790389	1.306098784443422	24.73277725785579	2.72100769130241	-0.2551778035328739	11.41482010451984	107.5738370808398	0	0	20.49284946495579	-3.928475426249773	-5.142146612853201	13.39539587268415	95.06579422974495	0	0
